<?xml version="1.0" standalone="no"?>
<!DOCTYPE svg PUBLIC "-//W3C//DTD SVG 20010904//EN"
 "http://www.w3.org/TR/2001/REC-SVG-20010904/DTD/svg10.dtd">
<svg version="1.0" xmlns="http://www.w3.org/2000/svg"
 width="208.000000pt" height="208.000000pt" viewBox="0 0 208.000000 208.000000"
 preserveAspectRatio="xMidYMid meet">
<metadata>
Created by potrace 1.14, written by Peter Selinger 2001-2017
</metadata>
<g transform="translate(0.000000,208.000000) scale(0.100000,-0.100000)"
fill="#000000" stroke="none">
<path d="M920 1488 c-3 -3 -48 -8 -100 -11 -195 -12 -368 -66 -386 -120 -15
-43 -5 -296 16 -413 11 -62 20 -118 20 -123 0 -6 -19 -15 -42 -21 -138 -35
-251 -85 -317 -138 -49 -40 -71 -84 -72 -145 -1 -60 13 -88 69 -139 154 -137
566 -248 926 -248 313 0 666 82 856 199 98 61 140 115 140 182 0 62 -27 117
-77 157 -37 29 -162 92 -182 92 -6 0 3 21 20 47 69 110 88 275 40 359 -26 46
-86 92 -133 101 -46 8 -58 20 -58 59 0 71 -81 110 -300 144 -72 11 -412 25
-420 18z m765 -324 c37 -38 48 -75 42 -155 -4 -62 -11 -89 -37 -138 -18 -34
-36 -62 -39 -63 -30 -7 -61 -3 -57 8 4 11 11 44 31 159 2 17 7 64 11 105 8
108 14 118 49 84z m-82 -389 c-12 -9 -19 -10 -22 -3 -4 12 20 29 32 21 4 -3 0
-11 -10 -18z"/>
</g>
</svg>
